<svg xmlns="http://www.w3.org/2000/svg" viewBox="0 0 64 64" width="64" height="64">
  <!-- Background circle -->
  <circle cx="32" cy="32" r="30" fill="#8b5cf6" stroke="#ffffff" stroke-width="2"/>
  
  <!-- Musical notes in white for better contrast -->
  <g fill="#ffffff">
    <!-- Main note -->
    <ellipse cx="20" cy="40" rx="4" ry="3"/>
    <rect x="23" y="20" width="2" height="20"/>
    
    <!-- Second note -->
    <ellipse cx="35" cy="35" rx="3.5" ry="2.5"/>
    <rect x="37.5" y="18" width="1.8" height="17"/>
    
    <!-- Third note -->
    <ellipse cx="46" cy="42" rx="3" ry="2"/>
    <rect x="48" y="28" width="1.5" height="14"/>
    
    <!-- Connecting beam -->
    <rect x="25" y="20" width="14" height="2"/>
    
    <!-- Heart accent -->
    <path d="M32 12 C30 10, 28 10, 28 12 C28 10, 26 10, 26 12 C26 14, 32 18, 32 18 C32 18, 38 14, 38 12 C38 10, 36 10, 36 12 C36 10, 34 10, 32 12 Z" 
          fill="#ec4899"/>
  </g>
</svg>